<mxfile host="app.diagrams.net" agent="Mozilla/5.0 (Windows NT 10.0; Win64; x64) AppleWebKit/537.36 (KHTML, like Gecko) Chrome/129.0.0.0 Safari/537.36" version="24.7.17">
  <diagram name="Page-1" id="vWbm4F5WGKStp1jepNvA">
    <mxGraphModel dx="536" dy="559" grid="1" gridSize="10" guides="1" tooltips="1" connect="1" arrows="1" fold="1" page="1" pageScale="1" pageWidth="850" pageHeight="1100" math="0" shadow="0">
      <root>
        <mxCell id="0" />
        <mxCell id="1" parent="0" />
        <mxCell id="e246euh79TsqWVeabmaM-18" style="rounded=0;orthogonalLoop=1;jettySize=auto;html=1;endArrow=none;endFill=0;" parent="1" source="u43qWuTFDMmnTfOcjVX1-1" target="e246euh79TsqWVeabmaM-1" edge="1">
          <mxGeometry relative="1" as="geometry" />
        </mxCell>
        <mxCell id="e246euh79TsqWVeabmaM-47" value="1" style="edgeLabel;html=1;align=center;verticalAlign=middle;resizable=0;points=[];" parent="e246euh79TsqWVeabmaM-18" vertex="1" connectable="0">
          <mxGeometry x="0.005" relative="1" as="geometry">
            <mxPoint as="offset" />
          </mxGeometry>
        </mxCell>
        <mxCell id="e246euh79TsqWVeabmaM-20" style="edgeStyle=orthogonalEdgeStyle;rounded=0;orthogonalLoop=1;jettySize=auto;html=1;endArrow=none;endFill=0;" parent="1" source="u43qWuTFDMmnTfOcjVX1-1" target="e246euh79TsqWVeabmaM-2" edge="1">
          <mxGeometry relative="1" as="geometry" />
        </mxCell>
        <mxCell id="e246euh79TsqWVeabmaM-49" value="1" style="edgeLabel;html=1;align=center;verticalAlign=middle;resizable=0;points=[];" parent="e246euh79TsqWVeabmaM-20" vertex="1" connectable="0">
          <mxGeometry x="-0.004" relative="1" as="geometry">
            <mxPoint as="offset" />
          </mxGeometry>
        </mxCell>
        <mxCell id="e246euh79TsqWVeabmaM-26" style="rounded=0;orthogonalLoop=1;jettySize=auto;html=1;endArrow=none;endFill=0;" parent="1" source="u43qWuTFDMmnTfOcjVX1-1" target="e246euh79TsqWVeabmaM-9" edge="1">
          <mxGeometry relative="1" as="geometry" />
        </mxCell>
        <mxCell id="e246euh79TsqWVeabmaM-45" value="M" style="edgeLabel;html=1;align=center;verticalAlign=middle;resizable=0;points=[];" parent="e246euh79TsqWVeabmaM-26" vertex="1" connectable="0">
          <mxGeometry x="0.0033" relative="1" as="geometry">
            <mxPoint as="offset" />
          </mxGeometry>
        </mxCell>
        <mxCell id="u43qWuTFDMmnTfOcjVX1-1" value="person" style="rounded=0;whiteSpace=wrap;html=1;" parent="1" vertex="1">
          <mxGeometry x="80" y="320" width="120" height="40" as="geometry" />
        </mxCell>
        <mxCell id="PP_cPeMWecXOrynIbDTe-15" style="edgeStyle=none;shape=connector;rounded=0;orthogonalLoop=1;jettySize=auto;html=1;strokeColor=default;align=center;verticalAlign=middle;fontFamily=Helvetica;fontSize=11;fontColor=default;labelBackgroundColor=default;endArrow=none;endFill=0;" edge="1" parent="1" source="u43qWuTFDMmnTfOcjVX1-2" target="e246euh79TsqWVeabmaM-9">
          <mxGeometry relative="1" as="geometry" />
        </mxCell>
        <mxCell id="PP_cPeMWecXOrynIbDTe-17" value="1" style="edgeLabel;html=1;align=center;verticalAlign=middle;resizable=0;points=[];fontFamily=Helvetica;fontSize=11;fontColor=default;labelBackgroundColor=default;" vertex="1" connectable="0" parent="PP_cPeMWecXOrynIbDTe-15">
          <mxGeometry x="0.0494" y="-1" relative="1" as="geometry">
            <mxPoint as="offset" />
          </mxGeometry>
        </mxCell>
        <mxCell id="u43qWuTFDMmnTfOcjVX1-2" value="shoe" style="rounded=0;whiteSpace=wrap;html=1;" parent="1" vertex="1">
          <mxGeometry x="80" y="120" width="120" height="40" as="geometry" />
        </mxCell>
        <mxCell id="e246euh79TsqWVeabmaM-19" style="rounded=0;orthogonalLoop=1;jettySize=auto;html=1;endArrow=none;endFill=0;shape=link;" parent="1" source="e246euh79TsqWVeabmaM-1" target="u43qWuTFDMmnTfOcjVX1-2" edge="1">
          <mxGeometry relative="1" as="geometry" />
        </mxCell>
        <mxCell id="e246euh79TsqWVeabmaM-48" value="M" style="edgeLabel;html=1;align=center;verticalAlign=middle;resizable=0;points=[];" parent="e246euh79TsqWVeabmaM-19" vertex="1" connectable="0">
          <mxGeometry x="-0.0033" y="1" relative="1" as="geometry">
            <mxPoint as="offset" />
          </mxGeometry>
        </mxCell>
        <mxCell id="e246euh79TsqWVeabmaM-1" value="owns" style="rhombus;whiteSpace=wrap;html=1;" parent="1" vertex="1">
          <mxGeometry x="80" y="220" width="120" height="40" as="geometry" />
        </mxCell>
        <mxCell id="e246euh79TsqWVeabmaM-21" style="edgeStyle=orthogonalEdgeStyle;rounded=0;orthogonalLoop=1;jettySize=auto;html=1;endArrow=none;endFill=0;shape=link;" parent="1" source="e246euh79TsqWVeabmaM-2" target="e246euh79TsqWVeabmaM-3" edge="1">
          <mxGeometry relative="1" as="geometry" />
        </mxCell>
        <mxCell id="e246euh79TsqWVeabmaM-50" value="N" style="edgeLabel;html=1;align=center;verticalAlign=middle;resizable=0;points=[];" parent="e246euh79TsqWVeabmaM-21" vertex="1" connectable="0">
          <mxGeometry x="0.006" relative="1" as="geometry">
            <mxPoint as="offset" />
          </mxGeometry>
        </mxCell>
        <mxCell id="e246euh79TsqWVeabmaM-2" value="sets" style="rhombus;whiteSpace=wrap;html=1;" parent="1" vertex="1">
          <mxGeometry x="80" y="440" width="120" height="40" as="geometry" />
        </mxCell>
        <mxCell id="e246euh79TsqWVeabmaM-22" style="edgeStyle=orthogonalEdgeStyle;rounded=0;orthogonalLoop=1;jettySize=auto;html=1;endArrow=none;endFill=0;shape=link;" parent="1" source="e246euh79TsqWVeabmaM-3" target="e246euh79TsqWVeabmaM-11" edge="1">
          <mxGeometry relative="1" as="geometry" />
        </mxCell>
        <mxCell id="e246euh79TsqWVeabmaM-3" value="goal" style="rounded=0;whiteSpace=wrap;html=1;" parent="1" vertex="1">
          <mxGeometry x="80" y="560" width="120" height="40" as="geometry" />
        </mxCell>
        <mxCell id="e246euh79TsqWVeabmaM-31" style="rounded=0;orthogonalLoop=1;jettySize=auto;html=1;endArrow=none;endFill=0;" parent="1" source="e246euh79TsqWVeabmaM-4" target="e246euh79TsqWVeabmaM-5" edge="1">
          <mxGeometry relative="1" as="geometry" />
        </mxCell>
        <mxCell id="e246euh79TsqWVeabmaM-55" value="M" style="edgeLabel;html=1;align=center;verticalAlign=middle;resizable=0;points=[];" parent="e246euh79TsqWVeabmaM-31" vertex="1" connectable="0">
          <mxGeometry x="-0.012" relative="1" as="geometry">
            <mxPoint as="offset" />
          </mxGeometry>
        </mxCell>
        <mxCell id="e246euh79TsqWVeabmaM-4" value="on" style="rhombus;whiteSpace=wrap;html=1;" parent="1" vertex="1">
          <mxGeometry x="480" y="220" width="120" height="40" as="geometry" />
        </mxCell>
        <mxCell id="e246euh79TsqWVeabmaM-32" style="rounded=0;orthogonalLoop=1;jettySize=auto;html=1;endArrow=none;endFill=0;shape=link;" parent="1" source="e246euh79TsqWVeabmaM-5" target="e246euh79TsqWVeabmaM-6" edge="1">
          <mxGeometry relative="1" as="geometry" />
        </mxCell>
        <mxCell id="e246euh79TsqWVeabmaM-56" value="M" style="edgeLabel;html=1;align=center;verticalAlign=middle;resizable=0;points=[];" parent="e246euh79TsqWVeabmaM-32" vertex="1" connectable="0">
          <mxGeometry x="-0.0731" relative="1" as="geometry">
            <mxPoint as="offset" />
          </mxGeometry>
        </mxCell>
        <mxCell id="e246euh79TsqWVeabmaM-34" style="rounded=0;orthogonalLoop=1;jettySize=auto;html=1;shape=link;" parent="1" source="e246euh79TsqWVeabmaM-5" target="e246euh79TsqWVeabmaM-8" edge="1">
          <mxGeometry relative="1" as="geometry" />
        </mxCell>
        <mxCell id="e246euh79TsqWVeabmaM-59" value="M" style="edgeLabel;html=1;align=center;verticalAlign=middle;resizable=0;points=[];" parent="e246euh79TsqWVeabmaM-34" vertex="1" connectable="0">
          <mxGeometry x="-0.0815" relative="1" as="geometry">
            <mxPoint as="offset" />
          </mxGeometry>
        </mxCell>
        <mxCell id="e246euh79TsqWVeabmaM-5" value="route" style="rounded=0;whiteSpace=wrap;html=1;" parent="1" vertex="1">
          <mxGeometry x="480" y="120" width="120" height="40" as="geometry" />
        </mxCell>
        <mxCell id="e246euh79TsqWVeabmaM-33" style="rounded=0;orthogonalLoop=1;jettySize=auto;html=1;endArrow=none;endFill=0;" parent="1" source="e246euh79TsqWVeabmaM-6" target="e246euh79TsqWVeabmaM-7" edge="1">
          <mxGeometry relative="1" as="geometry" />
        </mxCell>
        <mxCell id="e246euh79TsqWVeabmaM-57" value="1" style="edgeLabel;html=1;align=center;verticalAlign=middle;resizable=0;points=[];" parent="e246euh79TsqWVeabmaM-33" vertex="1" connectable="0">
          <mxGeometry x="0.0332" relative="1" as="geometry">
            <mxPoint as="offset" />
          </mxGeometry>
        </mxCell>
        <mxCell id="e246euh79TsqWVeabmaM-6" value="start" style="rhombus;whiteSpace=wrap;html=1;" parent="1" vertex="1">
          <mxGeometry x="680" y="60" width="120" height="40" as="geometry" />
        </mxCell>
        <mxCell id="e246euh79TsqWVeabmaM-7" value="location" style="rounded=0;whiteSpace=wrap;html=1;" parent="1" vertex="1">
          <mxGeometry x="860" y="120" width="120" height="40" as="geometry" />
        </mxCell>
        <mxCell id="e246euh79TsqWVeabmaM-35" style="rounded=0;orthogonalLoop=1;jettySize=auto;html=1;endArrow=none;endFill=0;" parent="1" source="e246euh79TsqWVeabmaM-8" target="e246euh79TsqWVeabmaM-7" edge="1">
          <mxGeometry relative="1" as="geometry" />
        </mxCell>
        <mxCell id="e246euh79TsqWVeabmaM-58" value="1" style="edgeLabel;html=1;align=center;verticalAlign=middle;resizable=0;points=[];" parent="e246euh79TsqWVeabmaM-35" vertex="1" connectable="0">
          <mxGeometry x="-0.0119" relative="1" as="geometry">
            <mxPoint as="offset" />
          </mxGeometry>
        </mxCell>
        <mxCell id="e246euh79TsqWVeabmaM-8" value="end" style="rhombus;whiteSpace=wrap;html=1;" parent="1" vertex="1">
          <mxGeometry x="680" y="180" width="120" height="40" as="geometry" />
        </mxCell>
        <mxCell id="e246euh79TsqWVeabmaM-27" style="rounded=0;orthogonalLoop=1;jettySize=auto;html=1;endArrow=none;endFill=0;" parent="1" source="e246euh79TsqWVeabmaM-9" target="e246euh79TsqWVeabmaM-10" edge="1">
          <mxGeometry relative="1" as="geometry" />
        </mxCell>
        <mxCell id="e246euh79TsqWVeabmaM-46" value="N" style="edgeLabel;html=1;align=center;verticalAlign=middle;resizable=0;points=[];" parent="e246euh79TsqWVeabmaM-27" vertex="1" connectable="0">
          <mxGeometry x="0.0033" relative="1" as="geometry">
            <mxPoint as="offset" />
          </mxGeometry>
        </mxCell>
        <mxCell id="e246euh79TsqWVeabmaM-9" value="runs" style="rhombus;whiteSpace=wrap;html=1;" parent="1" vertex="1">
          <mxGeometry x="270" y="220" width="120" height="40" as="geometry" />
        </mxCell>
        <mxCell id="e246euh79TsqWVeabmaM-29" style="rounded=0;orthogonalLoop=1;jettySize=auto;html=1;endArrow=none;endFill=0;" parent="1" source="e246euh79TsqWVeabmaM-10" target="e246euh79TsqWVeabmaM-17" edge="1">
          <mxGeometry relative="1" as="geometry" />
        </mxCell>
        <mxCell id="e246euh79TsqWVeabmaM-60" value="1" style="edgeLabel;html=1;align=center;verticalAlign=middle;resizable=0;points=[];" parent="e246euh79TsqWVeabmaM-29" vertex="1" connectable="0">
          <mxGeometry x="-0.0667" relative="1" as="geometry">
            <mxPoint as="offset" />
          </mxGeometry>
        </mxCell>
        <mxCell id="e246euh79TsqWVeabmaM-30" style="rounded=0;orthogonalLoop=1;jettySize=auto;html=1;endArrow=none;endFill=0;" parent="1" source="e246euh79TsqWVeabmaM-10" target="e246euh79TsqWVeabmaM-4" edge="1">
          <mxGeometry relative="1" as="geometry" />
        </mxCell>
        <mxCell id="e246euh79TsqWVeabmaM-54" value="1" style="edgeLabel;html=1;align=center;verticalAlign=middle;resizable=0;points=[];" parent="e246euh79TsqWVeabmaM-30" vertex="1" connectable="0">
          <mxGeometry x="0.001" relative="1" as="geometry">
            <mxPoint as="offset" />
          </mxGeometry>
        </mxCell>
        <mxCell id="PP_cPeMWecXOrynIbDTe-6" style="rounded=0;orthogonalLoop=1;jettySize=auto;html=1;endArrow=none;endFill=0;shape=link;" edge="1" parent="1" source="e246euh79TsqWVeabmaM-10" target="PP_cPeMWecXOrynIbDTe-4">
          <mxGeometry relative="1" as="geometry" />
        </mxCell>
        <mxCell id="PP_cPeMWecXOrynIbDTe-11" value="M" style="edgeLabel;html=1;align=center;verticalAlign=middle;resizable=0;points=[];fontFamily=Helvetica;fontSize=11;fontColor=default;labelBackgroundColor=default;" vertex="1" connectable="0" parent="PP_cPeMWecXOrynIbDTe-6">
          <mxGeometry x="-0.0086" relative="1" as="geometry">
            <mxPoint as="offset" />
          </mxGeometry>
        </mxCell>
        <mxCell id="PP_cPeMWecXOrynIbDTe-8" style="edgeStyle=none;shape=link;rounded=0;orthogonalLoop=1;jettySize=auto;html=1;strokeColor=default;align=center;verticalAlign=middle;fontFamily=Helvetica;fontSize=11;fontColor=default;labelBackgroundColor=default;endArrow=none;endFill=0;" edge="1" parent="1" source="e246euh79TsqWVeabmaM-10" target="PP_cPeMWecXOrynIbDTe-5">
          <mxGeometry relative="1" as="geometry" />
        </mxCell>
        <mxCell id="PP_cPeMWecXOrynIbDTe-13" value="M" style="edgeLabel;html=1;align=center;verticalAlign=middle;resizable=0;points=[];fontFamily=Helvetica;fontSize=11;fontColor=default;labelBackgroundColor=default;" vertex="1" connectable="0" parent="PP_cPeMWecXOrynIbDTe-8">
          <mxGeometry x="-0.0146" y="2" relative="1" as="geometry">
            <mxPoint as="offset" />
          </mxGeometry>
        </mxCell>
        <mxCell id="e246euh79TsqWVeabmaM-10" value="run" style="rounded=0;whiteSpace=wrap;html=1;" parent="1" vertex="1">
          <mxGeometry x="480" y="320" width="120" height="40" as="geometry" />
        </mxCell>
        <mxCell id="e246euh79TsqWVeabmaM-24" style="rounded=0;orthogonalLoop=1;jettySize=auto;html=1;endArrow=none;endFill=0;" parent="1" source="e246euh79TsqWVeabmaM-11" target="e246euh79TsqWVeabmaM-14" edge="1">
          <mxGeometry relative="1" as="geometry" />
        </mxCell>
        <mxCell id="e246euh79TsqWVeabmaM-25" style="rounded=0;orthogonalLoop=1;jettySize=auto;html=1;entryX=0;entryY=0.5;entryDx=0;entryDy=0;endArrow=none;endFill=0;" parent="1" source="e246euh79TsqWVeabmaM-11" target="e246euh79TsqWVeabmaM-12" edge="1">
          <mxGeometry relative="1" as="geometry" />
        </mxCell>
        <mxCell id="e246euh79TsqWVeabmaM-11" value="d" style="ellipse;whiteSpace=wrap;html=1;aspect=fixed;" parent="1" vertex="1">
          <mxGeometry x="270" y="570.2" width="20" height="20" as="geometry" />
        </mxCell>
        <mxCell id="e246euh79TsqWVeabmaM-12" value="distance_goal" style="rounded=0;whiteSpace=wrap;html=1;" parent="1" vertex="1">
          <mxGeometry x="360" y="620" width="120" height="20" as="geometry" />
        </mxCell>
        <mxCell id="e246euh79TsqWVeabmaM-14" value="duration_goal" style="rounded=0;whiteSpace=wrap;html=1;" parent="1" vertex="1">
          <mxGeometry x="360" y="570" width="120" height="20" as="geometry" />
        </mxCell>
        <mxCell id="e246euh79TsqWVeabmaM-23" style="rounded=0;orthogonalLoop=1;jettySize=auto;html=1;exitX=0;exitY=0.5;exitDx=0;exitDy=0;endArrow=none;endFill=0;" parent="1" source="e246euh79TsqWVeabmaM-15" target="e246euh79TsqWVeabmaM-11" edge="1">
          <mxGeometry relative="1" as="geometry" />
        </mxCell>
        <mxCell id="e246euh79TsqWVeabmaM-28" style="rounded=0;orthogonalLoop=1;jettySize=auto;html=1;shape=link;" parent="1" source="e246euh79TsqWVeabmaM-15" target="e246euh79TsqWVeabmaM-17" edge="1">
          <mxGeometry relative="1" as="geometry" />
        </mxCell>
        <mxCell id="e246euh79TsqWVeabmaM-61" value="1" style="edgeLabel;html=1;align=center;verticalAlign=middle;resizable=0;points=[];" parent="e246euh79TsqWVeabmaM-28" vertex="1" connectable="0">
          <mxGeometry x="-0.04" y="1" relative="1" as="geometry">
            <mxPoint y="-1" as="offset" />
          </mxGeometry>
        </mxCell>
        <mxCell id="e246euh79TsqWVeabmaM-15" value="run_goal" style="rounded=0;whiteSpace=wrap;html=1;" parent="1" vertex="1">
          <mxGeometry x="360" y="520" width="120" height="20" as="geometry" />
        </mxCell>
        <mxCell id="e246euh79TsqWVeabmaM-17" value="is" style="rhombus;whiteSpace=wrap;html=1;" parent="1" vertex="1">
          <mxGeometry x="360" y="420" width="120" height="40" as="geometry" />
        </mxCell>
        <mxCell id="e246euh79TsqWVeabmaM-41" value="" style="verticalLabelPosition=bottom;verticalAlign=top;html=1;shape=mxgraph.basic.arc;startAngle=0.37395978642577;endAngle=0.876053990837275;rotation=-165;" parent="1" vertex="1">
          <mxGeometry x="321.63" y="539.1" width="17.47" height="17.47" as="geometry" />
        </mxCell>
        <mxCell id="e246euh79TsqWVeabmaM-43" value="" style="verticalLabelPosition=bottom;verticalAlign=top;html=1;shape=mxgraph.basic.arc;startAngle=0.37395978642577;endAngle=0.876053990837275;rotation=-100;" parent="1" vertex="1">
          <mxGeometry x="320" y="602" width="17.47" height="17.47" as="geometry" />
        </mxCell>
        <mxCell id="e246euh79TsqWVeabmaM-44" value="" style="verticalLabelPosition=bottom;verticalAlign=top;html=1;shape=mxgraph.basic.arc;startAngle=0.37395978642577;endAngle=0.876053990837275;rotation=-135;" parent="1" vertex="1">
          <mxGeometry x="322" y="571.47" width="17.47" height="17.47" as="geometry" />
        </mxCell>
        <mxCell id="PP_cPeMWecXOrynIbDTe-1" value="run_social_type" style="rounded=0;whiteSpace=wrap;html=1;" vertex="1" parent="1">
          <mxGeometry x="560" y="520" width="120" height="40" as="geometry" />
        </mxCell>
        <mxCell id="PP_cPeMWecXOrynIbDTe-2" value="run_intensity_type" style="rounded=0;whiteSpace=wrap;html=1;" vertex="1" parent="1">
          <mxGeometry x="720" y="520" width="120" height="40" as="geometry" />
        </mxCell>
        <mxCell id="PP_cPeMWecXOrynIbDTe-7" style="edgeStyle=none;shape=connector;rounded=0;orthogonalLoop=1;jettySize=auto;html=1;strokeColor=default;align=center;verticalAlign=middle;fontFamily=Helvetica;fontSize=11;fontColor=default;labelBackgroundColor=default;endArrow=none;endFill=0;" edge="1" parent="1" source="PP_cPeMWecXOrynIbDTe-4" target="PP_cPeMWecXOrynIbDTe-1">
          <mxGeometry relative="1" as="geometry" />
        </mxCell>
        <mxCell id="PP_cPeMWecXOrynIbDTe-10" value="1" style="edgeLabel;html=1;align=center;verticalAlign=middle;resizable=0;points=[];fontFamily=Helvetica;fontSize=11;fontColor=default;labelBackgroundColor=default;" vertex="1" connectable="0" parent="PP_cPeMWecXOrynIbDTe-7">
          <mxGeometry x="0.0355" relative="1" as="geometry">
            <mxPoint as="offset" />
          </mxGeometry>
        </mxCell>
        <mxCell id="PP_cPeMWecXOrynIbDTe-4" value="has" style="rhombus;whiteSpace=wrap;html=1;" vertex="1" parent="1">
          <mxGeometry x="520" y="420" width="120" height="40" as="geometry" />
        </mxCell>
        <mxCell id="PP_cPeMWecXOrynIbDTe-9" style="edgeStyle=none;shape=connector;rounded=0;orthogonalLoop=1;jettySize=auto;html=1;strokeColor=default;align=center;verticalAlign=middle;fontFamily=Helvetica;fontSize=11;fontColor=default;labelBackgroundColor=default;endArrow=none;endFill=0;" edge="1" parent="1" source="PP_cPeMWecXOrynIbDTe-5" target="PP_cPeMWecXOrynIbDTe-2">
          <mxGeometry relative="1" as="geometry" />
        </mxCell>
        <mxCell id="PP_cPeMWecXOrynIbDTe-14" value="1" style="edgeLabel;html=1;align=center;verticalAlign=middle;resizable=0;points=[];fontFamily=Helvetica;fontSize=11;fontColor=default;labelBackgroundColor=default;" vertex="1" connectable="0" parent="PP_cPeMWecXOrynIbDTe-9">
          <mxGeometry x="-0.1" relative="1" as="geometry">
            <mxPoint as="offset" />
          </mxGeometry>
        </mxCell>
        <mxCell id="PP_cPeMWecXOrynIbDTe-5" value="has" style="rhombus;whiteSpace=wrap;html=1;" vertex="1" parent="1">
          <mxGeometry x="720" y="420" width="120" height="40" as="geometry" />
        </mxCell>
      </root>
    </mxGraphModel>
  </diagram>
</mxfile>
